<?xml version="1.0" encoding="utf-8"?>
<!-- Generator: Adobe Illustrator 25.4.1, SVG Export Plug-In . SVG Version: 6.00 Build 0)  -->
<svg version="1.1" id="Capa_1" xmlns="http://www.w3.org/2000/svg" xmlns:xlink="http://www.w3.org/1999/xlink" x="0px" y="0px"
	 viewBox="0 0 364.43 207.77" style="enable-background:new 0 0 364.43 207.77;" xml:space="preserve">
<style type="text/css">
	.st0{fill:#CC0000;}
</style>
<g>
	<g>
		<path class="st0" d="M85.68,16.09h36.75v122.6c0,11.33-2.53,21.18-7.6,29.53c-5.07,8.36-12.09,14.8-21.08,19.32
			c-8.99,4.52-19.43,6.78-31.34,6.78c-10.59,0-20.19-1.88-28.8-5.62c-8.62-3.75-15.44-9.47-20.48-17.17
			c-5.04-7.7-7.53-17.39-7.47-29.06h37c0.11,4.64,1.07,8.6,2.88,11.89c1.8,3.29,4.29,5.81,7.47,7.56c3.18,1.75,6.94,2.62,11.29,2.62
			c4.58,0,8.46-0.99,11.63-2.96c3.18-1.98,5.59-4.88,7.25-8.71c1.66-3.83,2.49-8.56,2.49-14.17V16.09z"/>
		<path class="st0" d="M153.08,191.93V16.09h69.37c13.28,0,24.63,2.36,34.04,7.08c9.41,4.72,16.6,11.39,21.55,20
			c4.95,8.61,7.43,18.73,7.43,30.35c0,11.68-2.52,21.71-7.56,30.09c-5.04,8.39-12.32,14.81-21.85,19.27
			c-9.53,4.46-21.05,6.7-34.56,6.7h-46.45V99.72h40.44c7.1,0,12.99-0.97,17.69-2.92c4.69-1.95,8.2-4.86,10.52-8.76
			c2.32-3.89,3.48-8.73,3.48-14.51c0-5.84-1.16-10.76-3.48-14.77c-2.32-4.01-5.84-7.05-10.56-9.14c-4.72-2.09-10.66-3.13-17.82-3.13
			h-25.07v145.44H153.08z M248.04,111.91l43.7,80.02H250.7l-42.76-80.02H248.04z"/>
		<path class="st0" d="M332.43,194.16c-5.67,0-10.52-2.02-14.55-6.05c-4.04-4.04-6.05-8.89-6.05-14.55c0-5.61,2.02-10.42,6.05-14.42
			c4.04-4.01,8.89-6.01,14.55-6.01c5.5,0,10.3,2,14.42,6.01c4.12,4.01,6.18,8.82,6.18,14.42c0,3.78-0.96,7.23-2.88,10.35
			c-1.92,3.12-4.42,5.61-7.51,7.47S336.15,194.16,332.43,194.16z"/>
	</g>
</g>
</svg>
